<?xml version="1.0" encoding="UTF-8" standalone="no"?>
<!-- Created by Naziur Rahman from the Noun Project -->

<svg
   xmlns:dc="http://purl.org/dc/elements/1.1/"
   xmlns:cc="http://creativecommons.org/ns#"
   xmlns:rdf="http://www.w3.org/1999/02/22-rdf-syntax-ns#"
   xmlns:svg="http://www.w3.org/2000/svg"
   xmlns="http://www.w3.org/2000/svg"
   xmlns:sodipodi="http://sodipodi.sourceforge.net/DTD/sodipodi-0.dtd"
   xmlns:inkscape="http://www.inkscape.org/namespaces/inkscape"
   version="1.1"
   x="0px"
   y="0px"
   viewBox="0 0 85 85"
   xml:space="preserve"
   id="svg86"
   sodipodi:docname="feels_bad.svg"
   width="85"
   height="85"
   inkscape:version="0.92.2 (5c3e80d, 2017-08-06)"><metadata
     id="metadata92"><rdf:RDF><cc:Work
         rdf:about=""><dc:format>image/svg+xml</dc:format><dc:type
           rdf:resource="http://purl.org/dc/dcmitype/StillImage" /><dc:title></dc:title></cc:Work></rdf:RDF></metadata><defs
     id="defs90" /><sodipodi:namedview
     pagecolor="#ffffff"
     bordercolor="#666666"
     borderopacity="1"
     objecttolerance="10"
     gridtolerance="10"
     guidetolerance="10"
     inkscape:pageopacity="0"
     inkscape:pageshadow="2"
     inkscape:window-width="1920"
     inkscape:window-height="1027"
     id="namedview88"
     showgrid="false"
     fit-margin-top="0"
     fit-margin-left="0"
     fit-margin-right="0"
     fit-margin-bottom="0"
     inkscape:zoom="4.8535809"
     inkscape:cx="63.528253"
     inkscape:cy="34.717116"
     inkscape:window-x="-8"
     inkscape:window-y="-8"
     inkscape:window-maximized="1"
     inkscape:current-layer="svg86" /><polygon
     points="70.5,48.4 69.5,48.5 70,51.5 71.5,54.7 73.8,56.7 74,57.5 71.8,60.9 71.8,61.8 70.2,61.2 69.8,62.1 71.5,62.8 72.8,62.8 72.8,61.2 75.1,57.6 74.6,56.1 72.4,54.2 71,51.2 "
     id="polygon52"
     transform="translate(-8.4,-4.099997)" /><polygon
     points="64.9,60.3 64.2,61 64.9,61.7 65.3,61.3 66.8,61.3 66.8,60.3 "
     id="polygon54"
     transform="translate(-8.4,-4.099997)" /><polygon
     points="62.1,61.2 60.8,60.9 59.9,59.9 59.9,58.2 61.2,58.2 62.2,57.6 61.7,56.7 60.9,57.2 58.9,57.2 58.9,60.3 60.2,61.8 61.8,62.2 "
     id="polygon56"
     transform="translate(-8.4,-4.099997)" /><path
     d="m 41.8,41.700003 0.1,0.1 h 1.8 1.8 l 3,-0.3 h 2 v -2.2 l -0.2,-0.1 c 0,0 -3.1,-1.9 -3.2,-2 -0.2,-0.1 -0.8,-0.4 -1.9,-0.8 h -4.9 l -0.1,0.4 c -0.7,2.6 -0.7,2.8 -0.7,2.9 -0.1,0.1 -0.1,0.4 2.3,2 z m 7.7,-1.2 h -0.7 c 0.1,-0.3 0.2,-0.6 0.1,-1 0.2,0.1 0.4,0.3 0.6,0.4 z m -8.6,-3.2 h 2.8 c -0.3,0.8 -0.9,2.5 -0.3,3.4 h -1.2 c -0.7,-0.5 -1.6,-1.1 -1.9,-1.3 0.2,-0.3 0.4,-1.2 0.6,-2.1 z"
     id="path58"
     inkscape:connector-curvature="0" /><path
     d="m 68.3,42.600003 1.7,0.8 h 1.5 l 0.6,-1.4 -0.1,-3.1 -1.9,-1.3 h -1.4 l -1.7,0.8 -1.7,0.2 -1.2,0.6 -0.4,1.4 v 1.7 l 3.7,0.2 z m 2.5,-0.2 h -0.5 l -0.7,-0.3 c 0.7,-0.1 1.1,-0.3 1.5,-0.7 v 0.4 z m -6.1,-1.7 0.2,-0.9 0.6,-0.3 1.6,-0.2 0.5,-0.2 c -0.2,0.7 -0.4,1.7 0.1,2.4 l -0.3,-0.1 -2.8,-0.1 v -0.6 z"
     id="path60"
     inkscape:connector-curvature="0" /><rect
     x="-28.905373"
     y="66.220566"
     transform="rotate(-82.484111)"
     width="4.0999641"
     height="0.9999913"
     id="rect62"
     style="stroke-width:0.9999913" /><polygon
     points="60.8,39.4 61.8,39.4 61.8,38 59.7,36.2 59.1,36.9 60.8,38.5 "
     id="polygon64"
     transform="translate(-8.4,-4.099997)" /><polygon
     points="58.2,34.1 58.5,34.4 59.2,33.7 58.6,33.1 52.4,33 51.6,33.3 48.2,34 45.7,35.3 46.1,36.1 48.4,34.9 51.8,34.3 52.6,34 "
     id="polygon66"
     transform="translate(-8.4,-4.099997)" /><polygon
     points="72.2,34.3 76.7,34.3 80.1,36.7 80.6,35.9 77.1,33.3 72,33.3 70.2,34.2 70.7,35.1 "
     id="polygon68"
     transform="translate(-8.4,-4.099997)" /><polygon
     points="42.3,31.3 47.1,31.3 56.6,28.4 59.4,28.4 64.1,30.1 70.4,30.1 71.1,30.3 72.4,30.4 73.7,30.3 74.6,31 75.2,30.2 74,29.3 72.4,29.4 71.3,29.3 70.6,29.1 64.4,29.1 59.6,27.4 56.5,27.4 47,30.3 42.3,30.3 "
     id="polygon70"
     transform="translate(-8.4,-4.099997)" /><polygon
     points="46.8,25.8 49.5,25.6 53.9,24.9 60.1,24.9 64.1,26.4 70.5,26.1 73.7,26 76.6,28.3 77.2,27.5 74,25 64.3,25.4 60.3,23.9 53.8,23.9 49.3,24.7 46.7,24.8 "
     id="polygon72"
     transform="translate(-8.4,-4.099997)" /><polygon
     points="58,68.2 62.2,69.5 72.3,69.5 73,70.2 73.7,69.6 72.8,68.5 62.4,68.5 57.7,67 56.2,68.4 56.8,69.1 "
     id="polygon74"
     transform="translate(-8.4,-4.099997)" /><path
     d="m 78.5,83.100003 -5.4,-1.9 h -8.9 l -2.6,-0.6 h -1.7 l -1.1,-1.9 -0.1,-1.5 2.8,-0.5 h 0.1 c 0,0 3.3,-1.6 3.7,-1.8 0.4,-0.2 1.2,-0.6 1.5,-0.8 0.1,-0.1 0.3,-0.2 1.3,-2 l 3.6,-4 v -3.9 c 0.8,-0.7 0.9,-0.8 0.9,-0.8 0.1,-0.1 1,-1.3 1,-1.3 l 1.5,-2.6 0.9,-2 1.2,-1.5 0.4,-2.3 0.4,-1.9 v -0.1 c 0,-0.6 0.1,-6.2 0,-6.8 -0.1,-0.6 -0.8,-1.8 -1.2,-2.3 l 0.1,-3.1 c 0.1,-0.8 0.3,-2.2 0.4,-2.5 0.3,-0.6 0.2,-1 0,-1.2 l 0.1,-0.9 c 0,-0.3 0.1,-0.9 0.2,-1.1 0,-0.1 0.1,-0.4 -0.5,-2.1 l -0.2,-1.9 -0.7,-1.1 -1.3,-2.5 v -2.4 l -1.3,-4.3 -3,-5.4 -0.1,-0.2 c -1.1,-0.8 -3.5,-2.7 -3.6,-2.8 -0.2,-0.1 -1.7,-1.6 -2.8,-2.5 l -2.9,-2.1999999 -3.3,-2 -2.7,-1.2 -6.9,-1.6 c -0.9,0 -1.9,-0.1 -2,-0.1 -0.2,0 -2.3,-0.1 -3.6,-0.2 l -5.8,0.5 -3.8,1 -4.7,2.6 -2.4,0.8 -2.1,1 c -0.2,0 -0.9,0.1 -1,0.1 -0.2,0 -0.2,0 -1.5,0.9999999 l -0.1,0.1 -1.3,2.6 -2.1,1.4 -0.2,4 -2.1,2.5 -0.2,2.4 -0.1,2.4 -1.2,2.2 -0.1,3.8 -0.4,6 0.2,1.5 0.1,2.1 1.3,2.5 v 1.7 l 1.7,4 2.5,3.8 0.9,1.6 0.7,2.7 v 10.9 l -1.4,3 -0.3,3.1 -1.2,2 -1,2.1 -1,1.1 c -0.6,0.8 -1.4,1.5 -1.6,1.6 -0.6,0.1 -1.1,1.1 -1.4,1.8 h -1.8 l -1.3,0.4 -3.7,1.6 -1.8,0.9 H 0 v 1 h 4.5 l 2,-1 3.6,-1.6 1,-0.3 h 4.5 v -1 h -1.7 c 0.2,-0.4 0.4,-0.8 0.5,-0.8 0.7,-0.1 1.8,-1.4 2.2,-1.9 l 1,-1.1 1.1,-2.2 1.3,-2.1 0.4,-3.2 1.4,-3.2 v -11.3 l -0.7,-2.9 -1,-1.8 -2.4,-3.7 -1.6,-3.6 v -1.9 l -1.3,-2.5 -0.1,-1.9 -0.1,-1.4 0.4,-6.1 0.1,-3.6 1.2,-2.2 0.1,-2.6 0.1,-2 2,-2.4 0.2,-3.9 1.9,-1.3 1.3,-2.7 c 0.4,-0.3 0.8,-0.6 1,-0.7 0.1,0 0.4,0 1.1,-0.1 l 2.3,-1.0999999 2.4,-0.8 4.6,-2.5 3.7,-1 5.6,-0.4 c 1.2,0.1 3.3,0.1 3.5,0.2 0.2,0 1.5,0.1 2,0.1 l 6.7,1.6 2.5,1.1 3.3,2 2.8,2.0999999 c 2.7,2.5 2.8,2.5 2.8,2.6 0.1,0.1 2.2,1.6 3.5,2.7 l 2.9,5.2 1.2,4 v 2.6 l 1.4,2.8 0.6,0.9 0.2,1.7 v 0.1 c 0.2,0.6 0.4,1.4 0.5,1.6 0.1,0.2 -0.1,1.3 -0.1,1.3 v 0.1 l 0.3,1 v 0 c 0,0 0,0.1 -0.1,0.2 -0.3,0.6 -0.5,2.5 -0.5,2.9 l -0.1,3.4 0.1,0.1 c 0.5,0.8 1,1.7 1.1,2 0.1,0.4 0,4.3 0,6.6 l -0.4,1.8 -0.4,2.1 -1.1,1.4 -1,2.1 -1.4,2.5 c 0,0 -0.9,1.2 -1,1.3 -0.1,0.1 -0.5,0.5 -0.9,0.8 l -0.2,0.1 v 4 l -3.4,3.8 -0.1,0.1 c -0.4,0.7 -0.9,1.6 -1,1.7 -0.2,0.1 -0.9,0.5 -1.4,0.7 -0.4,0.2 -3.2,1.5 -3.7,1.8 l -3.1,0.5 -6.3,-0.4 -3.7,-1.3 -7.6,-6.9 -2.2,-1.5 -5.7,-5.5 -1.6,-3 -0.2,-0.3 -0.2,-2.6 -1,-1.4 -0.7,-3.8 0.4,-1.3 v -1.1 h -1 v 0.8 l -0.5,1.4 0.7,4.1 1,1.5 0.1,2.8 0.4,0.4 1.6,3 6.1,5.9 2.2,1.5 7.6,7 4,1.5 6.1,0.4 0.1,1.7 1.5,2.7 h 2.1 l 2.6,0.6 h 8.8 l 5.3,1.9 4.8,0.5 0.1,-1 z"
     id="path76"
     inkscape:connector-curvature="0" /><path
     d="m 53,81.200003 c -0.2,-0.1 -1,-0.8 -1.6,-1.4 l -0.8,-2 -0.9,0.4 0.8,2.1 0.1,0.2 c 1.6,1.6 2,1.7 2.2,1.7 0,0 0,0 0.1,0 l 0.4,-0.2 -0.5,-0.4 z"
     id="path78"
     inkscape:connector-curvature="0" /><polygon
     points="35.8,81.6 36.9,80.7 39.1,80.2 38.9,79.2 36.4,79.8 34.9,81.1 34.5,83.5 32.8,85.3 31.4,85.3 31.4,86.3 33.2,86.3 35.4,84 "
     id="polygon82"
     transform="translate(-8.4,-4.099997)" /><polygon
     points="38.6,73.9 39.8,72.2 39.8,67.3 39.1,65.3 38.2,65.6 38.8,67.4 38.8,71.9 37.8,73.4 "
     id="polygon84"
     transform="translate(-8.4,-4.099997)" /></svg>